:version 1.10
:name ASF
:units
  mass 1
  length 1
  angle deg
:documentation
  ASF file generated by Kaydara
:root
  axis xyz
  order  tx ty tz rx ry rz
  position 0 0 0
  orientation 0 0 0
:bonedata
  begin
    id 1
    name LeftUpLegDummy
    direction 1 -2.30186e-007 -8.31532e-007
    length 2.93387
    axis 0 0 0 xyz
  end
  begin
    id 2
    name LeftUpLeg
    direction -1.82929e-007 -1 -1.48925e-009
    length 17.3336
    axis -3.48766 0.00143442 -0.000521554 xyz
    dof rx ry rz
  end
  begin
    id 3
    name LeftLeg
    direction -1.82929e-007 -1 -5.23717e-011
    length 14.9995
    axis 3.68178 -0.00654042 -0.000282425 xyz
    dof rx ry rz
  end
  begin
    id 4
    name LeftFoot
    direction 8.31532e-007 -4.54534e-011 1
    length 6.74421
    axis 1.87234e-006 4.66016e-005 -5.96866e-006 xyz
    dof rx ry rz
  end
  begin
    id 5
    name LeftToes
    direction 0.00818058 -0.00485161 0.999955
    length 3.85048
    axis 1.06247e-005 4.65869e-005 -5.96999e-006 xyz
    dof rx ry rz
  end
  begin
    id 6
    name SpineDummy
    direction -5.8607e-008 0.943407 -0.331637
    length 5.93572
    axis 0 0 0 xyz
  end
  begin
    id 7
    name Spine
    direction -1.04988e-007 0.999988 0.00495137
    length 10.1015
    axis -0.001389 0.000121417 6.61666e-006 xyz
    dof rx ry rz
  end
  begin
    id 8
    name Spine1
    direction 0 0 0
    length 0
    axis -0.001389 0.00012144 6.56766e-006 xyz
    dof rx ry rz
  end
  begin
    id 9
    name RightShoulderDummy
    direction -0.98348 0.17941 -0.0240696
    length 3.59882
    axis -0.001389 0.00012144 6.56766e-006 xyz
  end
  begin
    id 10
    name RightShoulder
    direction -0.978693 0.204882 0.0135597
    length 2.70001
    axis 0.215806 0.000203631 -0.00679732 xyz
    dof rx ry rz
  end
  begin
    id 11
    name RightArm
    direction -1 3.85509e-006 8.31394e-007
    length 10.2459
    axis -23.2009 -0.134239 -0.964098 xyz
    dof rx ry rz
  end
  begin
    id 12
    name RightForeArm
    direction -1 3.85569e-006 8.3129e-007
    length 8.16799
    axis -9.92322 0.0658061 0.17887 xyz
    dof rx ry rz
  end
  begin
    id 13
    name RightHand
    direction -0.992843 -0.0414604 0.112003
    length 5.28593
    axis -0.00960638 0.00330669 -0.185225 xyz
    dof rx ry rz
  end
  begin
    id 14
    name LeftShoulder1Dummy
    direction 0.983523 0.179172 -0.0240748
    length 3.59866
    axis -0.001389 0.00012144 6.56766e-006 xyz
  end
  begin
    id 15
    name LeftShoulder1
    direction 0.978627 0.205195 0.0135605
    length 2.70019
    axis -0.001389 0.00012144 6.57583e-006 xyz
    dof rx ry rz
  end
  begin
    id 16
    name LeftArm
    direction 1 3.51895e-006 -8.60188e-007
    length 10.2459
    axis -23.1894 0.134785 0.967513 xyz
    dof rx ry rz
  end
  begin
    id 17
    name LeftForeArm
    direction 1 3.51921e-006 -7.32029e-007
    length 8.16799
    axis -9.91835 -0.0656957 -0.177789 xyz
    dof rx ry rz
  end
  begin
    id 18
    name LeftHand
    direction 0.992938 -0.0411636 0.11126
    length 5.32135
    axis -0.00960237 -0.00340661 0.185177 xyz
    dof rx ry rz
  end
  begin
    id 19
    name HEadDummy
    direction 1.01974e-006 0.999861 -0.016675
    length 2.99946
    axis -0.001389 0.00012144 6.56766e-006 xyz
  end
  begin
    id 20
    name HEad
    direction -0.0222689 0.980941 0.193023
    length 5.12695
    axis -0.001389 0.00012144 6.56766e-006 xyz
    dof rx ry rz
  end
  begin
    id 21
    name RightUpLegDummy
    direction -1 2.30186e-007 8.31532e-007
    length 2.93387
    axis 0 0 0 xyz
  end
  begin
    id 22
    name RightUpLeg
    direction -1.82966e-007 -1 1.56832e-007
    length 17.3336
    axis -3.4909 -0.000906625 0.00028951 xyz
    dof rx ry rz
  end
  begin
    id 23
    name RightLeg
    direction -1.82786e-007 -1 -1.80317e-007
    length 14.9995
    axis 3.68513 0.0193739 -0.131021 xyz
    dof rx ry rz
  end
  begin
    id 24
    name RightFoot
    direction 8.31721e-007 -4.63324e-011 1
    length 6.74421
    axis 4.81691e-005 -0.120479 -0.188785 xyz
    dof rx ry rz
  end
  begin
    id 25
    name RightToes
    direction 0.00124746 -0.014064 0.9999
    length 3.85082
    axis 0.000481921 0.542163 -0.142575 xyz
    dof rx ry rz
  end
:hierarchy
  begin
    root LeftUpLegDummy SpineDummy RightUpLegDummy
    LeftUpLegDummy LeftUpLeg
    LeftUpLeg LeftLeg
    LeftLeg LeftFoot
    LeftFoot LeftToes
    SpineDummy Spine
    Spine Spine1
    Spine1 RightShoulderDummy LeftShoulder1Dummy HEadDummy
    RightShoulderDummy RightShoulder
    RightShoulder RightArm
    RightArm RightForeArm
    RightForeArm RightHand
    LeftShoulder1Dummy LeftShoulder1
    LeftShoulder1 LeftArm
    LeftArm LeftForeArm
    LeftForeArm LeftHand
    HEadDummy HEad
    RightUpLegDummy RightUpLeg
    RightUpLeg RightLeg
    RightLeg RightFoot
    RightFoot RightToes
  end

:SAMPLES-PER-SECOND 30
:FULLY-SPECIFIED
:DEGREES
225
root  -10.4977 35.0497 59.8962 6.04874 24.1894 -1.5936
LeftUpLeg  -12.3315 11.7575 -2.25645
LeftLeg  12.8433 -2.57681 -0.416919
LeftFoot  -1.6085 0.000604083 0.0430237
LeftToes  -14.5498 1.61378e-006 8.80029e-008
Spine  3.92144 0.253821 -4.50608
Spine1  7.53342 0.15649 -7.92306
RightShoulder  0.0373853 5.81663 4.48125
RightArm  -29.9915 6.28354 66.3142
RightForeArm  20.3545 59.8672 17.7587
RightHand  1.31422 -6.90962 -21.1241
LeftShoulder1  0.166709 -2.09663 -9.40186
LeftArm  -15.5657 -4.75475 -60.5526
LeftForeArm  33.3999 -18.1723 -3.30801
LeftHand  0.0603385 1.35015 4.72321
HEad  -1.0716 -19.7856 -4.95423
RightUpLeg  -20.4741 -14.3255 -5.33923
RightLeg  10.6557 3.07131 0.376836
RightFoot  8.56338 -0.00520882 0.447084
RightToes  -40.5477 -0.222873 -0.318195
226
root  -10.4208 35.0273 60.1817 6.13847 26.3715 -1.50972
LeftUpLeg  -12.3504 10.8608 -2.16158
LeftLeg  13.5485 -3.76313 -0.655589
LeftFoot  -2.08595 0.00209543 0.11509
LeftToes  -13.8694 1.61378e-006 8.80029e-008
Spine  3.99552 0.294421 -4.71061
Spine1  7.74079 0.180177 -8.1887
RightShoulder  0.0275275 6.11751 3.81555
RightArm  -37.5103 10.6731 60.4764
RightForeArm  16.722 54.2736 14.2314
RightHand  1.48296 -7.22647 -22.7749
LeftShoulder1  0.181444 -2.25256 -9.97321
LeftArm  -17.1532 -3.15441 -58.884
LeftForeArm  34.9227 -16.5431 -2.99166
LeftHand  0.0703788 1.46951 5.08963
HEad  -0.515064 -18.561 -5.54898
RightUpLeg  -21.8787 -14.0541 -5.71855
RightLeg  9.45015 3.19613 0.324116
RightFoot  10.4542 -0.0171707 0.565201
RightToes  -41.3862 -0.229651 -0.322818
227
root  -10.3732 35.0087 60.4941 6.14129 28.6847 -1.424
LeftUpLeg  -12.2584 9.77464 -1.95287
LeftLeg  14.2177 -4.89564 -0.91099
LeftFoot  -2.45094 0.00429449 0.200745
LeftToes  -13.204 1.61378e-006 8.80029e-008
Spine  4.13736 0.4643 -4.80515
Spine1  8.04783 0.512749 -8.29895
RightShoulder  0.0212115 6.71626 3.49429
RightArm  -44.8836 14.0882 53.1773
RightForeArm  14.6926 47.3966 11.0712
RightHand  1.54971 -7.86096 -21.884
LeftShoulder1  0.188568 -2.29888 -10.1965
LeftArm  -19.7473 -1.76993 -57.6716
LeftForeArm  36.7927 -14.532 -2.60855
LeftHand  0.088418 1.67065 5.66507
HEad  -0.146769 -16.5648 -6.4047
RightUpLeg  -23.4136 -15.5506 -5.24623
RightLeg  9.45116 4.24276 0.429787
RightFoot  10.5217 -0.0362305 0.770972
RightToes  -43.2572 -0.245012 -0.332773
228
root  -10.356 34.9931 60.8513 6.2467 31.159 -1.21346
LeftUpLeg  -12.0902 8.66243 -1.71522
LeftLeg  14.7055 -6.21638 -1.21016
LeftFoot  -2.6667 0.00695673 0.298876
LeftToes  -13.5899 1.61378e-006 8.80029e-008
Spine  4.32193 0.769864 -4.8475
Spine1  8.43903 1.14033 -8.32163
RightShoulder  0.0142881 7.681 3.263
RightArm  -51.232 15.4201 45.0349
RightForeArm  13.3796 40.6788 8.72072
RightHand  1.59002 -8.50818 -20.7486
LeftShoulder1  0.190936 -2.39407 -10.1852
LeftArm  -22.8305 -0.67103 -56.5865
LeftForeArm  38.1283 -12.424 -2.21522
LeftHand  0.128812 2.19576 6.32393
HEad  0.0422877 -14.6376 -7.43961
RightUpLeg  -24.7652 -17.5919 -4.31114
RightLeg  9.87825 7.03792 0.764127
RightFoot  9.58751 -0.0681503 1.19009
RightToes  -43.7554 -0.249156 -0.335338
229
root  -10.345 34.9767 61.2629 6.48189 34.0058 -0.97987
LeftUpLeg  -11.9936 7.61269 -1.38488
LeftLeg  15.184 -8.02985 -1.62998
LeftFoot  -2.91037 0.0111619 0.439377
LeftToes  -14.1221 1.61378e-006 8.80029e-008
Spine  4.42992 1.12225 -4.82569
Spine1  8.67135 1.86622 -8.23495
RightShoulder  0.00832273 8.67321 3.15498
RightArm  -55.7316 14.6626 37.2549
RightForeArm  13.7422 34.3029 6.90655
RightHand  1.4789 -8.54133 -19.2273
LeftShoulder1  0.189989 -2.49112 -10.3914
LeftArm  -25.2395 0.427282 -55.0356
LeftForeArm  38.5983 -10.7301 -1.90462
LeftHand  0.180866 2.87453 6.81274
HEad  0.423824 -12.5013 -8.79423
RightUpLeg  -25.7892 -19.2449 -3.35832
RightLeg  10.7123 13.3453 1.63469
RightFoot  9.55913 -0.159646 2.28654
RightToes  -45.5069 -0.2639 -0.34407
230
root  -10.3261 34.9566 61.7183 6.78534 37.2537 -0.717759
LeftUpLeg  -11.9313 6.54817 -0.972889
LeftLeg  15.6771 -10.192 -2.15489
LeftFoot  -3.19307 0.0173912 0.62395
LeftToes  -15.1394 1.61378e-006 8.80029e-008
Spine  4.47985 1.40804 -4.73115
Spine1  8.77211 2.48071 -8.0632
RightShoulder  0.00554776 9.31671 3.44975
RightArm  -57.8935 13.1526 30.6368
RightForeArm  17.0662 28.4525 5.47871
RightHand  1.18059 -7.87834 -16.6354
LeftShoulder1  0.181835 -2.44279 -10.8708
LeftArm  -26.6043 1.65429 -52.9512
LeftForeArm  38.189 -9.89537 -1.75364
LeftHand  0.217911 3.47672 6.78724
HEad  1.05822 -9.61025 -10.4179
RightUpLeg  -26.3688 -19.9372 -2.7969
RightLeg  12.4743 24.9006 3.73845
RightFoot  8.89066 -0.296243 4.18643
RightToes  -50.6699 -0.308823 -0.367135
231
root  -10.3043 34.9288 62.2165 7.12667 40.8372 -0.407652
LeftUpLeg  -11.9078 5.3397 -0.439651
LeftLeg  16.2764 -12.5995 -2.7921
LeftFoot  -3.53689 0.026602 0.861576
LeftToes  -16.7125 1.61378e-006 8.80029e-008
Spine  4.54223 1.60892 -4.56485
Spine1  8.89467 2.93988 -7.78696
RightShoulder  0.00427954 9.58303 3.71655
RightArm  -58.5787 11.3046 25.9729
RightForeArm  18.4244 23.7905 4.45369
RightHand  1.15866 -8.39134 -15.3142
LeftShoulder1  0.168025 -2.28159 -11.4887
LeftArm  -26.764 2.90512 -50.5727
LeftForeArm  37.6751 -9.91643 -1.75797
LeftHand  0.22171 3.53073 6.80071
HEad  1.92315 -5.1699 -12.3958
RightUpLeg  -25.9909 -17.5 -3.43374
RightLeg  14.9912 37.706 7.00097
RightFoot  7.45554 -0.361687 5.92394
RightToes  -54.0951 -0.339693 -0.380164
232
root  -10.2692 34.8981 62.7612 7.83836 44.9446 0.389538
LeftUpLeg  -11.7366 4.06166 -0.132773
LeftLeg  16.4652 -15.3678 -3.44287
LeftFoot  -3.61885 0.0343352 1.08683
LeftToes  -18.7362 1.61378e-006 8.80029e-008
Spine  4.63519 1.63059 -4.45956
Spine1  9.11994 3.03744 -7.60826
RightShoulder  0.00302347 9.95741 3.55139
RightArm  -59.9302 8.09686 23.6341
RightForeArm  14.4463 20.8577 3.84667
RightHand  1.61805 -9.57262 -18.7628
LeftShoulder1  0.147129 -1.88422 -11.6818
LeftArm  -26.6449 3.89117 -48.5935
LeftForeArm  37.4776 -10.3629 -1.83907
LeftHand  0.196004 3.10401 6.83934
HEad  2.57156 0.88372 -14.2974
RightUpLeg  -24.6333 -11.7015 -5.40951
RightLeg  17.2192 43.9773 9.52825
RightFoot  7.112 -0.421222 7.14718
RightToes  -56.0301 -0.35746 -0.386702
233
root  -10.2237 34.8891 63.3249 9.01563 49.8395 1.48865
LeftUpLeg  -11.5037 2.03445 0.16809
LeftLeg  15.8428 -18.1153 -3.8351
LeftFoot  -3.25936 0.0332752 1.16951
LeftToes  -20.6586 1.61378e-006 8.80029e-008
Spine  4.69399 1.48994 -4.29821
Spine1  9.28076 2.81044 -7.32964
RightShoulder  0.0015759 10.6632 3.11908
RightArm  -64.6252 2.70004 22.8113
RightForeArm  10.445 19.3186 3.53661
RightHand  2.08363 -9.21283 -25.0503
LeftShoulder1  0.125776 -1.49389 -10.999
LeftArm  -26.8577 4.73886 -47.7344
LeftForeArm  37.3729 -11.0353 -1.96146
LeftHand  0.180951 2.78676 7.04134
HEad  3.15599 7.40876 -15.8851
RightUpLeg  -22.4694 -3.73747 -8.17894
RightLeg  16.3986 40.7206 8.40678
RightFoot  6.28624 -0.291007 5.67257
RightToes  -44.2425 -0.25323 -0.337812
234
root  -10.1554 34.9129 63.8426 10.4811 55.5043 2.79708
LeftUpLeg  -11.4606 -0.776292 0.534964
LeftLeg  15.08 -20.6882 -4.07552
LeftFoot  -2.56324 0.0239184 1.06907
LeftToes  -22.7202 1.61378e-006 8.80029e-008
Spine  4.80173 1.26588 -3.86843
Spine1  9.50311 2.39213 -6.55711
RightShoulder  0.000595335 10.9763 3.12787
RightArm  -71.1835 -3.95623 21.8699
RightForeArm  6.67583 19.3281 3.53563
RightHand  2.08179 -9.6286 -23.9613
LeftShoulder1  0.107937 -1.10372 -10.8794
LeftArm  -27.0478 4.74589 -47.1918
LeftForeArm  36.7148 -11.6858 -2.081
LeftHand  0.174873 2.67549 7.08951
HEad  4.37941 13.8987 -17.4792
RightUpLeg  -20.3494 -2.28853 -9.05489
RightLeg  14.0314 31.9554 5.54069
RightFoot  5.35285 -0.146945 3.51975
RightToes  -49.9517 -0.302452 -0.36417
235
root  -10.1515 35.0181 64.2412 11.5545 61.57 3.17064
LeftUpLeg  -12.332 -3.36905 1.51919
LeftLeg  14.7798 -23.5173 -4.47707
LeftFoot  -1.599 0.0107739 0.77203
LeftToes  -23.4913 1.61378e-006 8.80029e-008
Spine  4.90715 1.10828 -2.87871
Spine1  9.69882 2.08307 -4.7834
RightShoulder  0.000688973 10.0603 3.5426
RightArm  -77.2981 -10.1799 20.499
RightForeArm  4.94306 18.5278 3.37632
RightHand  1.53648 -7.74265 -22.0281
LeftShoulder1  0.0824612 -0.381623 -11.5869
LeftArm  -27.6871 3.51378 -47.5314
LeftForeArm  36.0002 -12.2423 -2.18384
LeftHand  0.164346 2.49956 7.13264
HEad  5.81471 19.8835 -19.1131
RightUpLeg  -18.2951 -3.8919 -8.70692
RightLeg  11.4682 27.8809 3.67409
RightFoot  5.46578 -0.125789 3.01189
RightToes  -48.9247 -0.293408 -0.359792
